<?xml version="1.0" encoding="UTF-8" standalone="no"?><!DOCTYPE svg PUBLIC "-//W3C//DTD SVG 1.1//EN" "http://www.w3.org/Graphics/SVG/1.1/DTD/svg11.dtd"><svg width="100%" height="100%" viewBox="0 0 914 667" version="1.1" xmlns="http://www.w3.org/2000/svg" xmlns:xlink="http://www.w3.org/1999/xlink" xml:space="preserve" xmlns:serif="http://www.serif.com/" style="fill-rule:evenodd;clip-rule:evenodd;stroke-linejoin:round;stroke-miterlimit:2;"><g><rect x="0" y="0" width="913.496" height="666.992" style="fill:#fffcfc;"/><g id="Cogs"><path d="M182.612,35.746l2.023,19.666c7.542,1.941 14.848,4.707 21.785,8.246l14.539,-13.397c6.976,4.057 13.542,8.781 19.606,14.105l-8.081,18.043c5.561,5.452 10.505,11.5 14.743,18.034l19.289,-4.333c4.013,7.002 7.337,14.376 9.926,22.019l-16.02,11.585c2.09,7.502 3.348,15.212 3.751,22.99l18.871,5.893c-0.026,8.07 -0.834,16.118 -2.413,24.032l-19.666,2.023c-1.941,7.542 -4.707,14.848 -8.246,21.785l13.397,14.539c-4.057,6.976 -8.781,13.542 -14.105,19.606l-18.043,-8.081c-5.452,5.561 -11.5,10.505 -18.034,14.743l4.333,19.289c-7.002,4.013 -14.376,7.337 -22.019,9.926l-11.585,-16.02c-7.502,2.09 -15.212,3.348 -22.99,3.751l-5.893,18.871c-8.07,-0.026 -16.118,-0.834 -24.032,-2.413l-2.023,-19.666c-7.542,-1.941 -14.848,-4.707 -21.785,-8.246l-14.539,13.397c-6.976,-4.057 -13.542,-8.781 -19.606,-14.105l8.081,-18.043c-5.561,-5.452 -10.505,-11.5 -14.743,-18.034l-19.289,4.333c-4.013,-7.002 -7.337,-14.376 -9.926,-22.019l16.02,-11.585c-2.09,-7.502 -3.348,-15.212 -3.751,-22.99l-18.871,-5.893c0.026,-8.07 0.834,-16.118 2.413,-24.032l19.666,-2.023c1.941,-7.542 4.707,-14.848 8.246,-21.785l-13.397,-14.539c4.057,-6.976 8.781,-13.542 14.105,-19.606l18.043,8.081c5.452,-5.561 11.5,-10.505 18.034,-14.743l-4.333,-19.289c7.002,-4.013 14.376,-7.337 22.019,-9.926l11.585,16.02c7.502,-2.09 15.212,-3.348 22.99,-3.751l5.893,-18.871c8.07,0.026 16.118,0.834 24.032,2.413Zm-21.937,97.604c13.714,1.377 23.73,13.629 22.353,27.343c-1.377,13.714 -13.629,23.73 -27.343,22.353c-13.714,-1.377 -23.73,-13.629 -22.353,-27.343c1.377,-13.714 13.629,-23.73 27.343,-22.353Z" style="fill:#2e2e2e;"/><path d="M130.799,283.358l6.184,12.028c5.289,-0.64 10.632,-0.696 15.933,-0.167l5.93,-12.155c5.455,0.849 10.814,2.225 16.003,4.108l-0.659,13.508c4.9,2.09 9.556,4.713 13.882,7.822l11.213,-7.561c4.299,3.463 8.253,7.334 11.805,11.56l-7.324,11.369c3.199,4.26 5.919,8.86 8.112,13.715l13.491,-0.942c1.992,5.148 3.48,10.478 4.444,15.913l-12.028,6.184c0.64,5.289 0.696,10.632 0.167,15.933l12.155,5.93c-0.849,5.455 -2.225,10.814 -4.108,16.003l-13.508,-0.659c-2.09,4.9 -4.713,9.556 -7.822,13.882l7.561,11.213c-3.463,4.299 -7.334,8.253 -11.56,11.805l-11.369,-7.324c-4.26,3.199 -8.86,5.919 -13.715,8.112l0.942,13.491c-5.148,1.992 -10.478,3.48 -15.913,4.444l-6.184,-12.028c-5.289,0.64 -10.632,0.696 -15.933,0.167l-5.93,12.155c-5.455,-0.849 -10.814,-2.225 -16.003,-4.108l0.659,-13.508c-4.9,-2.09 -9.556,-4.713 -13.882,-7.822l-11.213,7.561c-4.299,-3.463 -8.253,-7.334 -11.805,-11.56l7.324,-11.369c-3.199,-4.26 -5.919,-8.86 -8.112,-13.715l-13.491,0.942c-1.992,-5.148 -3.48,-10.478 -4.444,-15.913l12.028,-6.184c-0.64,-5.289 -0.696,-10.632 -0.167,-15.933l-12.155,-5.93c0.849,-5.455 2.225,-10.814 4.108,-16.003l13.508,0.659c2.09,-4.9 4.713,-9.556 7.822,-13.882l-7.561,-11.213c3.463,-4.299 7.334,-8.253 11.56,-11.805l11.369,7.324c4.26,-3.199 8.86,-5.919 13.715,-8.112l-0.942,-13.491c5.148,-1.992 10.478,-3.48 15.913,-4.444Zm10.314,67.652c9.081,-2.536 18.513,2.778 21.048,11.859c2.536,9.081 -2.778,18.513 -11.859,21.048c-9.081,2.536 -18.513,-2.778 -21.048,-11.859c-2.536,-9.081 2.778,-18.513 11.859,-21.048Z" style="fill:#2e2e2e;"/><path d="M349.777,234.13l-2.752,13.241c4.516,2.827 8.706,6.142 12.496,9.886l12.253,-5.725c3.708,4.089 7.011,8.529 9.863,13.255l-9.004,10.091c2.497,4.706 4.469,9.673 5.879,14.81l13.473,1.169c1.167,5.396 1.808,10.892 1.914,16.411l-12.843,4.237c-0.19,5.324 -0.966,10.611 -2.314,15.765l11.084,7.749c-1.687,5.256 -3.88,10.336 -6.548,15.169l-13.241,-2.752c-2.827,4.516 -6.142,8.706 -9.886,12.496l5.725,12.253c-4.089,3.708 -8.529,7.011 -13.255,9.863l-10.091,-9.004c-4.706,2.497 -9.673,4.469 -14.81,5.879l-1.169,13.473c-5.396,1.167 -10.892,1.808 -16.411,1.914l-4.237,-12.843c-5.324,-0.19 -10.611,-0.966 -15.765,-2.314l-7.749,11.084c-5.256,-1.687 -10.336,-3.88 -15.169,-6.548l2.752,-13.241c-4.516,-2.827 -8.706,-6.142 -12.496,-9.886l-12.253,5.725c-3.708,-4.089 -7.011,-8.529 -9.863,-13.255l9.004,-10.091c-2.497,-4.706 -4.469,-9.673 -5.879,-14.81l-13.473,-1.169c-1.167,-5.396 -1.808,-10.892 -1.914,-16.411l12.843,-4.237c0.19,-5.324 0.966,-10.611 2.314,-15.765l-11.084,-7.749c1.687,-5.256 3.88,-10.336 6.548,-15.169l13.241,2.752c2.827,-4.516 6.142,-8.706 9.886,-12.496l-5.725,-12.253c4.089,-3.708 8.529,-7.011 13.255,-9.863l10.091,9.004c4.706,-2.497 9.673,-4.469 14.81,-5.879l1.169,-13.473c5.396,-1.167 10.892,-1.808 16.411,-1.914l4.237,12.843c5.324,0.19 10.611,0.966 15.765,2.314l7.749,-11.084c5.256,1.687 10.336,3.88 15.169,6.548Zm-34.509,59.096c8.656,3.737 12.65,13.799 8.914,22.455c-3.737,8.656 -13.799,12.65 -22.455,8.914c-8.656,-3.737 -12.65,-13.799 -8.914,-22.455c3.737,-8.656 13.799,-12.65 22.455,-8.914Z" style="fill:#2e2e2e;"/></g><g id="Logo"><path d="M733.466,417.688c-10.831,-2.71 -21.392,-3.792 -31.411,-3.792c-39.534,0 -74.736,19.224 -101.273,56.052c-15.705,-13.539 -27.35,-16.518 -36.826,-16.518c-6.5,0 -12.186,1.355 -17.331,1.355c-10.56,0 -19.495,-5.418 -31.681,-38.994c7.582,-3.521 16.518,-4.063 25.724,-4.063c3.521,0 7.043,-0.125 10.56,0c45.811,1.628 124.966,-81.723 14.352,-143.786c7.361,-7.534 112.589,-112.069 233.053,-79.706c33.437,8.983 59.315,26.168 77.961,42.493c-51.073,-16.761 -107.363,1.016 -139.219,43.821c-31.132,41.83 -32.742,99.246 -3.909,143.135l0,0.002Zm-558.088,0c10.83,-2.71 21.392,-3.792 31.411,-3.792c39.534,0 74.736,19.224 101.273,56.052c15.705,-13.539 27.348,-16.518 36.826,-16.518c6.498,0 12.185,1.355 17.329,1.355c10.56,0 19.497,-5.418 31.681,-38.994c-7.582,-3.521 -16.516,-4.063 -25.724,-4.063c-3.521,0 -7.042,-0.125 -10.56,0c-45.811,1.628 -124.965,-81.723 -14.35,-143.786c-7.362,-7.534 -112.591,-112.069 -233.053,-79.706c-33.439,8.983 -59.316,26.168 -77.963,42.493c51.073,-16.759 107.363,1.016 139.221,43.821c31.131,41.83 32.742,99.248 3.908,143.135" style="fill:#ed2754;fill-rule:nonzero;"/><path d="M345.45,377.226l40.347,0l0,28.703c11.914,-11.914 24.642,-20.308 37.91,-25.453c13.268,-5.145 28.161,-7.854 44.679,-7.854c36.013,0 60.113,10.019 72.57,29.788c7.042,10.83 10.29,26.535 10.29,46.845l0,129.163l-43.055,0l0,-126.997c0,-12.185 -2.166,-22.205 -6.771,-29.787c-7.582,-12.455 -21.121,-18.955 -41.158,-18.955c-10.019,0 -18.415,0.813 -24.913,2.437c-11.643,2.71 -21.934,8.396 -30.598,16.518c-7.042,6.771 -11.644,13.539 -13.81,20.579c-2.166,7.04 -3.25,17.331 -3.25,30.328l0,105.605l-42.513,0l0.271,-200.92Z" style="fill-rule:nonzero;"/></g><g id="Wrench"><path d="M838.318,205.375l16.315,23.224l-31.737,108.833l-92.137,-88.779l65.55,-44.44c0,-0 -12.38,35.927 -12.38,35.927l34.973,30.927l19.416,-65.692Z" style="fill:#2e2e2e;"/><path d="M796.309,308.89l-204.587,222.596l-44.415,-40.821l204.587,-222.596l44.415,40.821Z" style="fill:#2e2e2e;"/><path d="M534.273,486.003l47.1,19.51l19.51,47.1l-19.51,47.1l-47.1,19.51l-47.1,-19.51l-19.51,-47.1l19.51,-47.1l47.1,-19.51Zm0,19.641l-27.607,8.97l-17.062,23.484l0,29.028l17.062,23.484l27.607,8.97l27.607,-8.97l17.062,-23.484l0,-29.028l-17.062,-23.484l-27.607,-8.97Z" style="fill:#2e2e2e;"/></g></g></svg>