<?xml version="1.0" encoding="UTF-8" standalone="no"?>
<!DOCTYPE svg PUBLIC "-//W3C//DTD SVG 1.1//EN" "http://www.w3.org/Graphics/SVG/1.1/DTD/svg11.dtd">
<svg width="100%" height="100%" viewBox="0 0 219 159" version="1.1" xmlns="http://www.w3.org/2000/svg" xmlns:xlink="http://www.w3.org/1999/xlink" xml:space="preserve" xmlns:serif="http://www.serif.com/" style="fill-rule:evenodd;clip-rule:evenodd;stroke-linejoin:round;stroke-miterlimit:2;">
    <g transform="matrix(1,0,0,1,-128,-20)">
        <g transform="matrix(1.047771,0,0,1.073787,-14.480835,-10.060265)">
            <rect x="135.757" y="27.922" width="209.243" height="149.078" style="fill:rgb(255,252,252);"/>
        </g>
        <g id="Cogs" transform="matrix(1,0,0,1,-14.525352,9.953061)">
            <g transform="matrix(2.056407,0.206463,-0.206463,2.056407,-88.768342,-137.973863)">
                <path d="M139.902,62.068L140.364,64.317C141.258,64.454 142.134,64.688 142.977,65.017L144.502,63.3C145.355,63.688 146.168,64.158 146.93,64.703L146.206,66.881C146.912,67.447 147.553,68.088 148.119,68.794L150.297,68.07C150.842,68.832 151.312,69.645 151.7,70.498L149.983,72.023C150.312,72.866 150.546,73.742 150.683,74.636L152.932,75.098C153.023,76.03 153.023,76.97 152.932,77.902L150.683,78.364C150.546,79.258 150.312,80.134 149.983,80.977L151.7,82.502C151.312,83.355 150.842,84.168 150.297,84.93L148.119,84.206C147.553,84.912 146.912,85.553 146.206,86.119L146.93,88.297C146.168,88.842 145.355,89.312 144.502,89.7L142.977,87.983C142.134,88.312 141.258,88.546 140.364,88.683L139.902,90.932C138.97,91.023 138.03,91.023 137.098,90.932L136.636,88.683C135.742,88.546 134.866,88.312 134.023,87.983L132.498,89.7C131.645,89.312 130.832,88.842 130.07,88.297L130.794,86.119C130.088,85.553 129.447,84.912 128.881,84.206L126.703,84.93C126.158,84.168 125.688,83.355 125.3,82.502L127.017,80.977C126.688,80.134 126.454,79.258 126.317,78.364L124.068,77.902C123.977,76.97 123.977,76.03 124.068,75.098L126.317,74.636C126.454,73.742 126.688,72.866 127.017,72.023L125.3,70.498C125.688,69.645 126.158,68.832 126.703,68.07L128.881,68.794C129.447,68.088 130.088,67.447 130.794,66.881L130.07,64.703C130.832,64.158 131.645,63.688 132.498,63.3L134.023,65.017C134.866,64.688 135.742,64.454 136.636,64.317L137.098,62.068C138.03,61.977 138.97,61.977 139.902,62.068ZM138.5,73.6C140.101,73.6 141.4,74.899 141.4,76.5C141.4,78.101 140.101,79.4 138.5,79.4C136.899,79.4 135.6,78.101 135.6,76.5C135.6,74.899 136.899,73.6 138.5,73.6Z" style="fill:rgb(46,46,46);"/>
            </g>
            <g transform="matrix(1.361703,-0.380232,0.380232,1.361703,-40.427572,46.652011)">
                <path d="M139.902,62.068L140.364,64.317C141.258,64.454 142.134,64.688 142.977,65.017L144.502,63.3C145.355,63.688 146.168,64.158 146.93,64.703L146.206,66.881C146.912,67.447 147.553,68.088 148.119,68.794L150.297,68.07C150.842,68.832 151.312,69.645 151.7,70.498L149.983,72.023C150.312,72.866 150.546,73.742 150.683,74.636L152.932,75.098C153.023,76.03 153.023,76.97 152.932,77.902L150.683,78.364C150.546,79.258 150.312,80.134 149.983,80.977L151.7,82.502C151.312,83.355 150.842,84.168 150.297,84.93L148.119,84.206C147.553,84.912 146.912,85.553 146.206,86.119L146.93,88.297C146.168,88.842 145.355,89.312 144.502,89.7L142.977,87.983C142.134,88.312 141.258,88.546 140.364,88.683L139.902,90.932C138.97,91.023 138.03,91.023 137.098,90.932L136.636,88.683C135.742,88.546 134.866,88.312 134.023,87.983L132.498,89.7C131.645,89.312 130.832,88.842 130.07,88.297L130.794,86.119C130.088,85.553 129.447,84.912 128.881,84.206L126.703,84.93C126.158,84.168 125.688,83.355 125.3,82.502L127.017,80.977C126.688,80.134 126.454,79.258 126.317,78.364L124.068,77.902C123.977,76.97 123.977,76.03 124.068,75.098L126.317,74.636C126.454,73.742 126.688,72.866 127.017,72.023L125.3,70.498C125.688,69.645 126.158,68.832 126.703,68.07L128.881,68.794C129.447,68.088 130.088,67.447 130.794,66.881L130.07,64.703C130.832,64.158 131.645,63.688 132.498,63.3L134.023,65.017C134.866,64.688 135.742,64.454 136.636,64.317L137.098,62.068C138.03,61.977 138.97,61.977 139.902,62.068ZM138.5,73.6C140.101,73.6 141.4,74.899 141.4,76.5C141.4,78.101 140.101,79.4 138.5,79.4C136.899,79.4 135.6,78.101 135.6,76.5C135.6,74.899 136.899,73.6 138.5,73.6Z" style="fill:rgb(46,46,46);"/>
            </g>
            <g transform="matrix(1.298013,0.560333,-0.560333,1.298013,79.416447,-92.79704)">
                <path d="M139.902,62.068L140.364,64.317C141.258,64.454 142.134,64.688 142.977,65.017L144.502,63.3C145.355,63.688 146.168,64.158 146.93,64.703L146.206,66.881C146.912,67.447 147.553,68.088 148.119,68.794L150.297,68.07C150.842,68.832 151.312,69.645 151.7,70.498L149.983,72.023C150.312,72.866 150.546,73.742 150.683,74.636L152.932,75.098C153.023,76.03 153.023,76.97 152.932,77.902L150.683,78.364C150.546,79.258 150.312,80.134 149.983,80.977L151.7,82.502C151.312,83.355 150.842,84.168 150.297,84.93L148.119,84.206C147.553,84.912 146.912,85.553 146.206,86.119L146.93,88.297C146.168,88.842 145.355,89.312 144.502,89.7L142.977,87.983C142.134,88.312 141.258,88.546 140.364,88.683L139.902,90.932C138.97,91.023 138.03,91.023 137.098,90.932L136.636,88.683C135.742,88.546 134.866,88.312 134.023,87.983L132.498,89.7C131.645,89.312 130.832,88.842 130.07,88.297L130.794,86.119C130.088,85.553 129.447,84.912 128.881,84.206L126.703,84.93C126.158,84.168 125.688,83.355 125.3,82.502L127.017,80.977C126.688,80.134 126.454,79.258 126.317,78.364L124.068,77.902C123.977,76.97 123.977,76.03 124.068,75.098L126.317,74.636C126.454,73.742 126.688,72.866 127.017,72.023L125.3,70.498C125.688,69.645 126.158,68.832 126.703,68.07L128.881,68.794C129.447,68.088 130.088,67.447 130.794,66.881L130.07,64.703C130.832,64.158 131.645,63.688 132.498,63.3L134.023,65.017C134.866,64.688 135.742,64.454 136.636,64.317L137.098,62.068C138.03,61.977 138.97,61.977 139.902,62.068ZM138.5,73.6C140.101,73.6 141.4,74.899 141.4,76.5C141.4,78.101 140.101,79.4 138.5,79.4C136.899,79.4 135.6,78.101 135.6,76.5C135.6,74.899 136.899,73.6 138.5,73.6Z" style="fill:rgb(46,46,46);"/>
            </g>
        </g>
        <g id="Logo" transform="matrix(0.427839,0,0,0.427839,135.5005,63.610831)">
            <path d="M393.354,132.19C387.278,130.67 381.354,130.063 375.734,130.063C353.557,130.063 333.81,140.847 318.924,161.506C310.114,153.911 303.582,152.24 298.266,152.24C294.62,152.24 291.43,153 288.544,153C282.62,153 277.608,149.961 270.772,131.126C275.025,129.151 280.038,128.847 285.202,128.847C287.177,128.847 289.153,128.777 291.126,128.847C316.824,129.76 361.227,83.004 299.177,48.189C303.306,43.963 362.335,-14.677 429.91,3.477C448.667,8.516 463.183,18.156 473.643,27.314C444.993,17.912 413.417,27.884 395.547,51.896C378.083,75.361 377.18,107.569 393.354,132.189L393.354,132.19ZM80.29,132.19C86.365,130.67 92.29,130.063 97.91,130.063C120.087,130.063 139.834,140.847 154.72,161.506C163.53,153.911 170.061,152.24 175.378,152.24C179.023,152.24 182.213,153 185.099,153C191.023,153 196.036,149.961 202.871,131.126C198.618,129.151 193.606,128.847 188.441,128.847C186.466,128.847 184.491,128.777 182.517,128.847C156.819,129.76 112.417,83.004 174.467,48.189C170.337,43.963 111.308,-14.677 43.734,3.477C24.976,8.516 10.46,18.156 0,27.314C28.65,17.913 60.226,27.884 78.097,51.896C95.56,75.361 96.464,107.57 80.289,132.189" style="fill:rgb(237,39,84);fill-rule:nonzero;"/>
            <path d="M175.693,109.493L198.326,109.493L198.326,125.594C205.009,118.911 212.149,114.202 219.592,111.316C227.035,108.43 235.389,106.91 244.655,106.91C264.857,106.91 278.376,112.53 285.364,123.62C289.314,129.695 291.136,138.505 291.136,149.898L291.136,222.353L266.984,222.353L266.984,151.113C266.984,144.278 265.769,138.657 263.186,134.404C258.933,127.417 251.338,123.771 240.098,123.771C234.478,123.771 229.768,124.227 226.123,125.138C219.592,126.658 213.819,129.848 208.959,134.404C205.009,138.202 202.427,141.999 201.212,145.948C199.997,149.897 199.389,155.67 199.389,162.961L199.389,222.201L175.541,222.201L175.693,109.493Z" style="fill-rule:nonzero;"/>
        </g>
        <g id="Wrench" transform="matrix(1.120458,0,0,1.120458,-32.091858,-34.385523)">
            <g transform="matrix(-0.739628,-0.673016,0.673016,-0.739628,515.719717,430.03802)">
                <path d="M369.206,121.105L363.292,119.693L352.942,97.727L380.324,98.899L376.111,115.331L373,107.809L363,107.809L369.206,121.105Z" style="fill:rgb(46,46,46);"/>
            </g>
            <g transform="matrix(0.538781,0.509499,-0.687087,0.726575,221.6948,-89.665514)">
                <rect x="262.575" y="84" width="17.425" height="64.759" style="fill:rgb(46,46,46);"/>
            </g>
            <g transform="matrix(0.892492,0,0,0.892492,28.748434,25.333862)">
                <path d="M255.311,138.138L267.991,143.39L273.242,156.069L267.991,168.748L255.311,174L242.632,168.748L237.38,156.069L242.632,143.39L255.311,138.138ZM255.311,144.826L247.361,148.119L244.068,156.069L247.361,164.019L255.311,167.312L263.262,164.019L266.555,156.069L263.262,148.119L255.311,144.826Z" style="fill:rgb(46,46,46);"/>
            </g>
        </g>
    </g>
</svg>
